<?xml version="1.0" encoding="UTF-8"?>
<svg id="uuid-93d0d101-4482-449a-92c6-1741c48be215" data-name="Layer 1" xmlns="http://www.w3.org/2000/svg" viewBox="0 0 114.25 166.75">
  <g>
    <g>
      <path d="M18.72,129.96h29.68c32.72,0,59.25-26.52,59.25-59.25v-16.97c0-26.03-21.1-47.14-47.14-47.14h0c-29.87,0-53.9,24.03-53.9,53.67v57.58c0,6.69,5.42,12.11,12.11,12.11Z" style="fill: #fdfffc; stroke-width: 0px;"/>
      <path d="M48.4,136.56h-29.68c-10.32,0-18.72-8.4-18.72-18.72v-57.58c0-16.11,6.28-31.25,17.69-42.63C29.1,6.27,44.31,0,60.51,0c29.63,0,53.74,24.11,53.74,53.74v16.97c0,36.31-29.54,65.85-65.85,65.85ZM60.51,13.21c-12.68,0-24.57,4.9-33.49,13.79-8.9,8.88-13.81,20.69-13.81,33.27v57.58c0,3.03,2.47,5.5,5.5,5.5h29.68c29.02,0,52.64-23.61,52.64-52.64v-16.97c0-22.35-18.18-40.53-40.53-40.53Z" style="fill: #2f2f2f; stroke-width: 0px;"/>
    </g>
    <g>
      <path d="M50.46,45.08c-7.11,0-12.89,5.78-12.89,12.89s5.78,12.89,12.89,12.89,12.89-5.78,12.89-12.89-5.78-12.89-12.89-12.89Z" style="fill: #2f2f2f; stroke-width: 0px;"/>
      <path d="M81.7,45.08c-7.11,0-12.89,5.78-12.89,12.89s5.78,12.89,12.89,12.89,12.89-5.78,12.89-12.89-5.78-12.89-12.89-12.89Z" style="fill: #2f2f2f; stroke-width: 0px;"/>
    </g>
  </g>
  <ellipse cx="57.13" cy="156.05" rx="42.8" ry="10.7" style="fill: #2f2f2f; stroke-width: 0px;"/>
</svg>