<svg viewBox="0 0 113.74 166.09" xmlns="http://www.w3.org/2000/svg"><path d="m18.63 129.37h29.55c32.57 0 58.98-26.41 58.98-58.98v-16.89c0-25.92-21.01-46.93-46.93-46.93-29.74 0-53.66 23.92-53.66 53.43v57.32c0 6.66 5.4 12.05 12.05 12.05z" fill="#231f20"/><g fill="#fdfffc"><path d="m48.18 135.95h-29.55c-10.27 0-18.63-8.36-18.63-18.63v-57.32c0-16.04 6.25-31.11 17.61-42.44 11.36-11.32 26.5-17.56 42.63-17.56 29.5 0 53.5 24 53.5 53.5v16.89c0 36.15-29.41 65.56-65.56 65.56zm12.06-122.8c-12.62 0-24.46 4.88-33.34 13.73-8.86 8.84-13.74 20.6-13.74 33.12v57.32c0 3.02 2.46 5.48 5.48 5.48h29.55c28.89 0 52.4-23.51 52.4-52.4v-16.89c0-22.25-18.1-40.35-40.35-40.35z"/><path d="m50.23 44.88c-7.07 0-12.83 5.76-12.83 12.83s5.76 12.83 12.83 12.83 12.83-5.76 12.83-12.83-5.76-12.83-12.83-12.83z"/><path d="m81.33 44.88c-7.07 0-12.83 5.76-12.83 12.83s5.76 12.83 12.83 12.83 12.83-5.76 12.83-12.83-5.76-12.83-12.83-12.83z"/><ellipse cx="56.87" cy="155.35" rx="42.98" ry="10.75"/></g></svg>